<svg xmlns="http://www.w3.org/2000/svg" version="1.1" xmlns:xlink="http://www.w3.org/1999/xlink" xmlns:svgjs="http://svgjs.dev/svgjs" width="1000" height="623" viewBox="0 0 1000 623"><g transform="matrix(1,0,0,1,-0.6060606060606233,0.2522267206477409)"><svg viewBox="0 0 396 247" data-background-color="#ffffff" preserveAspectRatio="xMidYMid meet" height="623" width="1000" xmlns="http://www.w3.org/2000/svg" xmlns:xlink="http://www.w3.org/1999/xlink"><g id="tight-bounds" transform="matrix(1,0,0,1,0.2400000000000091,-0.09999999999999432)"><svg viewBox="0 0 395.52 247.2" height="247.2" width="395.52"><g><svg></svg></g><g><svg viewBox="0 0 395.52 247.2" height="247.2" width="395.52"><g transform="matrix(1,0,0,1,75.54432,105.7111120295203)"><svg viewBox="0 0 244.43135999999998 35.77777594095941" height="35.77777594095941" width="244.43135999999998"><g><svg viewBox="0 0 244.43135999999998 35.77777594095941" height="35.77777594095941" width="244.43135999999998"><g><svg viewBox="0 0 244.43135999999998 35.77777594095941" height="35.77777594095941" width="244.43135999999998"><g><svg viewBox="0 0 244.43135999999998 35.77777594095941" height="35.77777594095941" width="244.43135999999998"><g id="textblocktransform"><svg viewBox="0 0 244.43135999999998 35.77777594095941" height="35.77777594095941" width="244.43135999999998" id="textblock"><g><svg viewBox="0 0 244.43135999999998 35.77777594095941" height="35.77777594095941" width="244.43135999999998"><g transform="matrix(1,0,0,1,0,0)"><svg width="244.43135999999998" viewBox="2.450000047683716 -41.04999923706055 284.5299987792969 41.64999771118164" height="35.77777594095941" data-palette-color="#555555"><path d="M13.55 0.6L13.55 0.6Q9.35 0.6 6.93-1.15 4.5-2.9 3.48-6.08 2.45-9.25 2.45-13.4L2.45-13.4 2.45-27Q2.45-31.3 3.55-34.45 4.65-37.6 7.33-39.33 10-41.05 14.6-41.05L14.6-41.05Q19.1-41.05 21.68-39.55 24.25-38.05 25.35-35.4 26.45-32.75 26.45-29.2L26.45-29.2 26.45-26.6 17.7-26.6 17.7-29.9Q17.7-31.2 17.53-32.3 17.35-33.4 16.73-34.08 16.1-34.75 14.7-34.75L14.7-34.75Q13.25-34.75 12.6-33.98 11.95-33.2 11.78-32.05 11.6-30.9 11.6-29.65L11.6-29.65 11.6-10.9Q11.6-9.55 11.88-8.38 12.15-7.2 12.88-6.48 13.6-5.75 14.95-5.75L14.95-5.75Q16.35-5.75 17.1-6.5 17.85-7.25 18.15-8.45 18.45-9.65 18.45-11L18.45-11 18.45-15.75 14.8-15.75 14.8-21 26.5-21 26.5 0 20.6 0 20.1-3.35Q19.3-1.65 17.75-0.53 16.2 0.6 13.55 0.6ZM38.6 0L30.15 0 37.8-40.5 48-40.5 55.55 0 47.3 0 45.95-8.55 40-8.55 38.6 0ZM42.95-29.7L40.8-13.9 45.1-13.9 42.95-29.7ZM69.59 0L59.25 0 59.25-40.5 69.5-40.5Q74.8-40.5 77.75-39.18 80.7-37.85 81.9-35.02 83.09-32.2 83.09-27.7L83.09-27.7 83.09-13Q83.09-8.45 81.9-5.58 80.7-2.7 77.77-1.35 74.84 0 69.59 0L69.59 0ZM68.2-34.25L68.2-6.2 69.59-6.2Q71.65-6.2 72.55-6.8 73.45-7.4 73.67-8.6 73.9-9.8 73.9-11.6L73.9-11.6 73.9-29.25Q73.9-31.05 73.62-32.15 73.34-33.25 72.45-33.75 71.55-34.25 69.55-34.25L69.55-34.25 68.2-34.25ZM99.09 0.6L99.09 0.6Q94.89 0.6 92.47-1.15 90.04-2.9 89.02-6.08 87.99-9.25 87.99-13.4L87.99-13.4 87.99-27Q87.99-31.3 89.09-34.45 90.19-37.6 92.87-39.33 95.54-41.05 100.14-41.05L100.14-41.05Q104.64-41.05 107.22-39.55 109.79-38.05 110.89-35.4 111.99-32.75 111.99-29.2L111.99-29.2 111.99-26.6 103.24-26.6 103.24-29.9Q103.24-31.2 103.07-32.3 102.89-33.4 102.27-34.08 101.64-34.75 100.24-34.75L100.24-34.75Q98.79-34.75 98.14-33.98 97.49-33.2 97.32-32.05 97.14-30.9 97.14-29.65L97.14-29.65 97.14-10.9Q97.14-9.55 97.42-8.38 97.69-7.2 98.42-6.48 99.14-5.75 100.49-5.75L100.49-5.75Q101.89-5.75 102.64-6.5 103.39-7.25 103.69-8.45 103.99-9.65 103.99-11L103.99-11 103.99-15.75 100.34-15.75 100.34-21 112.04-21 112.04 0 106.14 0 105.64-3.35Q104.84-1.65 103.29-0.53 101.74 0.6 99.09 0.6ZM135.94 0L117.64 0 117.64-40.5 135.84-40.5 135.84-34.4 126.59-34.4 126.59-24.35 133.64-24.35 133.64-18.15 126.59-18.15 126.59-6.05 135.94-6.05 135.94 0ZM152.64 0L143.64 0 143.64-33.85 137.54-33.85 137.54-40.5 158.69-40.5 158.69-33.85 152.64-33.85 152.64 0ZM185.58 0.6L185.58 0.6Q181.38 0.6 178.96-1.15 176.53-2.9 175.51-6.08 174.48-9.25 174.48-13.4L174.48-13.4 174.48-27Q174.48-31.3 175.58-34.45 176.68-37.6 179.36-39.33 182.03-41.05 186.63-41.05L186.63-41.05Q191.13-41.05 193.71-39.55 196.28-38.05 197.38-35.4 198.48-32.75 198.48-29.2L198.48-29.2 198.48-26.6 189.73-26.6 189.73-29.9Q189.73-31.2 189.56-32.3 189.38-33.4 188.76-34.08 188.13-34.75 186.73-34.75L186.73-34.75Q185.28-34.75 184.63-33.98 183.98-33.2 183.81-32.05 183.63-30.9 183.63-29.65L183.63-29.65 183.63-10.9Q183.63-9.55 183.91-8.38 184.18-7.2 184.91-6.48 185.63-5.75 186.98-5.75L186.98-5.75Q188.38-5.75 189.13-6.5 189.88-7.25 190.18-8.45 190.48-9.65 190.48-11L190.48-11 190.48-15.75 186.83-15.75 186.83-21 198.53-21 198.53 0 192.63 0 192.13-3.35Q191.33-1.65 189.78-0.53 188.23 0.6 185.58 0.6ZM215.83 0.6L215.83 0.6Q211.18 0.6 208.56-0.93 205.93-2.45 204.88-5.38 203.83-8.3 203.83-12.55L203.83-12.55 203.83-40.5 212.68-40.5 212.68-11.2Q212.68-9.95 212.88-8.7 213.08-7.45 213.76-6.65 214.43-5.85 215.83-5.85L215.83-5.85Q217.28-5.85 217.93-6.65 218.58-7.45 218.76-8.7 218.93-9.95 218.93-11.2L218.93-11.2 218.93-40.5 227.83-40.5 227.83-12.55Q227.83-8.3 226.76-5.38 225.68-2.45 223.08-0.93 220.48 0.6 215.83 0.6ZM242.48 0L233.53 0 233.53-40.5 244.68-40.5Q248.78-40.5 251.78-39.6 254.78-38.7 256.45-36.38 258.13-34.05 258.13-29.8L258.13-29.8Q258.13-27.3 257.73-25.35 257.33-23.4 256.25-21.98 255.18-20.55 253.18-19.6L253.18-19.6 258.73 0 249.48 0 245.03-18.15 242.48-18.15 242.48 0ZM242.48-34.5L242.48-23.3 244.98-23.3Q246.88-23.3 247.93-23.98 248.98-24.65 249.4-25.93 249.83-27.2 249.83-29L249.83-29Q249.83-31.6 248.88-33.05 247.93-34.5 245.38-34.5L245.38-34.5 242.48-34.5ZM274.98 0.6L274.98 0.6Q270.33 0.6 267.7-0.93 265.08-2.45 264.03-5.38 262.98-8.3 262.98-12.55L262.98-12.55 262.98-40.5 271.83-40.5 271.83-11.2Q271.83-9.95 272.03-8.7 272.23-7.45 272.9-6.65 273.58-5.85 274.98-5.85L274.98-5.85Q276.43-5.85 277.08-6.65 277.73-7.45 277.9-8.7 278.08-9.95 278.08-11.2L278.08-11.2 278.08-40.5 286.98-40.5 286.98-12.55Q286.98-8.3 285.9-5.38 284.83-2.45 282.23-0.93 279.63 0.6 274.98 0.6Z" opacity="1" transform="matrix(1,0,0,1,0,0)" fill="#555555" class="wordmark-text-0" data-fill-palette-color="primary" id="text-0"></path></svg></g></svg></g></svg></g></svg></g></svg></g></svg></g></svg></g><g><path d="M0 123.6c0-68.262 55.338-123.6 123.6-123.6 60.715 0 111.205 43.777 121.628 101.488l-1.64 0c-10.403-56.815-60.167-99.875-119.988-99.875-67.371 0-121.987 54.615-121.987 121.987 0 67.371 54.615 121.987 121.987 121.987 59.821 0 109.585-43.059 119.988-99.875l1.64 0c-10.423 57.711-60.913 101.488-121.628 101.488-68.262 0-123.6-55.338-123.6-123.6z" fill="#000000" stroke="transparent" data-fill-palette-color="tertiary"></path></g></svg></g><defs></defs></svg><rect width="395.52" height="247.2" fill="none" stroke="none" visibility="hidden"></rect></g></svg></g></svg>